#!OML:ASF H:\Terrain\Patient Classification 1\Animal1\Tuesday\Animal1.ASF
:FULLY-SPECIFIED
:DEGREES
2650
root 10.1646 16.0365 6.77004 -702.198 -2.91968 3.17459
lowerback 20.6281 -0.603306 9.754
upperback -1.61457 3.35447 12.4758
thorax -13.9723 1.46791 7.86085
lowerneck 2.04715 -9.23277 -3.01496
upperneck -42.2527 -10.8904 11.0061
head -13.8817 -6.18334 6.36995
rclavicle -4.92986e-014 2.22639e-014
rhumerus -2.10803 -39.6269 -15.3205
rradius 33.3476
rwrist -42.4415
rhand -31.1745 27.9943
rfingers 7.12502
rthumb -4.45167 -1.93888
lclavicle -4.92986e-014 2.22639e-014
lhumerus -21.845 9.99645 27.0852
lradius 51.5539
lwrist -30.1009
lhand 12.1277 32.5793
lfingers 7.12502
lthumb 37.1415 58.6071
rfemur -48.0276 6.84782 22.4453
rtibia 48.7102
rfoot -12.5245 -16.6598
rtoes -7.11331
lfemur -56.9602 -4.79102 -25.8419
ltibia 73.0766
lfoot 0.110679 6.9251
ltoes -4.86663
2651
root 10.2341 16.0259 6.79583 -702.068 -3.94574 3.0637
lowerback 20.9231 -0.621954 9.8393
upperback -1.70376 3.41507 12.4713
thorax -14.2561 1.48439 7.81274
lowerneck 2.08589 -9.24867 -3.28454
upperneck -41.8761 -10.9353 11.1293
head -13.6677 -6.19445 6.42035
rclavicle -1.27222e-014 -1.90833e-014
rhumerus -1.97531 -39.5173 -15.505
rradius 33.3485
rwrist -42.4613
rhand -31.2826 27.9603
rfingers 7.12502
rthumb -4.556 -1.97069
lclavicle -1.27222e-014 -1.90833e-014
lhumerus -22.4031 10.3148 27.0701
lradius 52.656
lwrist -30.0408
lhand 12.5693 33.111
lfingers 7.12502
lthumb 37.559 59.0289
rfemur -48.308 7.35178 22.1737
rtibia 48.885
rfoot -12.6195 -16.1149
rtoes -7.98679
lfemur -57.4222 -5.57668 -24.9025
ltibia 72.0667
lfoot -1.1135 7.31247
ltoes -6.32612
2652
root 10.3001 16.0136 6.81832 -702.005 -5.14463 3.13776
lowerback 21.2363 -0.55836 9.57899
upperback -1.73337 3.48707 12.4534
thorax -14.4947 1.53387 7.93584
lowerneck 2.28198 -9.31399 -3.65029
upperneck -41.7132 -11.0506 11.3427
head -13.5663 -6.23291 6.56608
rclavicle 9.54166e-015 1.24042e-013
rhumerus -2.13953 -38.6964 -15.3352
rradius 33.5632
rwrist -43.0657
rhand -31.6143 27.8426
rfingers 7.12502
rthumb -4.87635 -2.08127
lclavicle 9.54166e-015 1.24042e-013
lhumerus -22.4769 10.5579 27.0274
lradius 52.4575
lwrist -30.1008
lhand 12.3435 32.942
lfingers 7.12502
lthumb 37.3455 58.9164
rfemur -48.5511 8.04112 21.6005
rtibia 48.9885
rfoot -12.7908 -15.6
rtoes -7.70586
lfemur -57.8221 -6.32232 -24.1322
ltibia 71.0111
lfoot -3.37965 7.79565
ltoes 6.7294
2653
root 10.3645 16.0235 6.85116 -702.029 -6.38561 3.12462
lowerback 21.3523 -0.486871 9.51068
upperback -1.56662 3.53308 12.3717
thorax -14.3568 1.54963 7.8447
lowerneck 2.33842 -9.44233 -3.75
upperneck -41.8302 -11.2401 11.5097
head -13.5886 -6.33674 6.68145
rclavicle -1.74931e-014 5.08889e-014
rhumerus -2.29679 -38.1984 -15.226
rradius 33.6196
rwrist -43.774
rhand -31.618 28.4518
rfingers 7.12502
rthumb -4.87985 -1.47206
lclavicle -1.74931e-014 5.08889e-014
lhumerus -21.89 10.8449 26.8555
lradius 51.25
lwrist -30.2118
lhand 11.216 32.0879
lfingers 7.12502
lthumb 36.2788 58.3355
rfemur -48.5602 8.69136 21.1582
rtibia 48.987
rfoot -12.7645 -15.5342
rtoes -7.91156
lfemur -58.0683 -7.06661 -23.2131
ltibia 69.85
lfoot -4.90453 7.75163
ltoes 12.8215
2654
root 10.431 16.0368 6.88681 -701.94 -7.3952 2.85213
lowerback 21.5917 -0.532256 9.90365
upperback -1.55514 3.59587 12.2908
thorax -14.4596 1.53506 7.50917
lowerneck 2.20878 -9.56873 -3.8145
upperneck -41.6313 -11.4093 11.6585
head -13.4279 -6.43835 6.72427
rclavicle -1.74931e-014 -3.49861e-014
rhumerus -2.26609 -38.1247 -15.3213
rradius 33.4294
rwrist -43.6935
rhand -31.6647 28.542
rfingers 7.12502
rthumb -4.92496 -1.38075
lclavicle -1.74931e-014 -3.49861e-014
lhumerus -21.5199 11.1719 26.673
lradius 50.3371
lwrist -30.4236
lhand 9.9981 31.1541
lfingers 7.12502
lthumb 35.1245 57.681
rfemur -48.5924 9.1537 21.0696
rtibia 48.9574
rfoot -12.9946 -15.0417
rtoes -7.08865
lfemur -58.4161 -7.86969 -21.9467
ltibia 68.6109
lfoot -5.59219 7.34383
ltoes 16.8543
2655
root 10.496 16.0268 6.91855 -701.737 -8.3649 2.75864
lowerback 21.9928 -0.60603 9.89652
upperback -2.00135 3.65999 12.5792
thorax -14.7573 1.45367 7.15023
lowerneck 2.30168 -9.54565 -3.79301
upperneck -41.3352 -11.4169 11.6032
head -13.3153 -6.44817 6.67182
rclavicle -3.65764e-014 -1.27222e-014
rhumerus -2.13207 -37.7059 -15.5091
rradius 33.2434
rwrist -43.4586
rhand -31.8535 28.1212
rfingers 7.12502
rthumb -5.10732 -1.79728
lclavicle -3.65764e-014 -1.27222e-014
lhumerus -21.5257 11.8132 26.4908
lradius 49.4605
lwrist -31.2013
lhand 8.97688 30.3707
lfingers 7.12502
lthumb 34.1553 57.1198
rfemur -48.9177 9.56865 20.7698
rtibia 48.988
rfoot -13.1078 -14.3798
rtoes -6.71555
lfemur -58.7909 -8.66092 -20.9415
ltibia 67.2734
lfoot -5.63133 7.30627
ltoes 14.169
2656
root 10.5598 16.0216 6.95683 -701.602 -9.40444 2.91855
lowerback 22.1428 -0.651803 9.60624
upperback -2.05041 3.54752 12.5486
thorax -14.9085 1.42084 7.31905
lowerneck 2.39714 -9.49896 -3.66852
upperneck -41.3595 -11.4212 11.4542
head -13.3735 -6.45824 6.6104
rclavicle -3.02153e-014 2.8625e-014
rhumerus -1.79607 -37.5708 -15.7918
rradius 33.133
rwrist -43.5451
rhand -31.8249 27.9342
rfingers 7.12502
rthumb -5.07961 -1.98487
lclavicle -3.02153e-014 2.8625e-014
lhumerus -21.7097 11.2752 26.3547
lradius 50.0091
lwrist -30.6224
lhand 8.85048 31.4758
lfingers 7.12502
lthumb 34.0353 58.2517
rfemur -49.2214 10.0922 20.1043
rtibia 49.0385
rfoot -13.2815 -13.926
rtoes -5.91065
lfemur -59.0307 -9.57282 -20.1051
ltibia 65.8196
lfoot -5.7607 7.70777
ltoes 5.95671
2657
root 10.6261 16.0327 6.99753 -701.64 -10.3925 3.12883
lowerback 21.9056 -0.697927 9.34222
upperback -1.73237 3.30109 12.5274
thorax -14.4025 1.33359 7.50199
lowerneck 2.30117 -9.57563 -3.70436
upperneck -41.5775 -11.5331 11.6078
head -13.4258 -6.53976 6.70591
rclavicle 3.18055e-014 5.725e-014
rhumerus -1.07046 -38.5819 -16.371
rradius 32.9103
rwrist -42.8958
rhand -31.7843 28.0259
rfingers 7.12502
rthumb -5.0405 -1.8942
lclavicle 3.18055e-014 5.725e-014
lhumerus -21.6864 12.0453 26.3911
lradius 50.1526
lwrist -30.6718
lhand 8.40209 31.7092
lfingers 7.12502
lthumb 33.6092 58.5788
rfemur -49.2828 10.6526 19.3513
rtibia 49.0822
rfoot -13.5497 -13.5318
rtoes -4.90703
lfemur -59.1092 -10.6673 -19.1776
ltibia 64.3287
lfoot -6.57506 7.94099
ltoes 5.25863
2658
root 10.6955 16.0462 7.03798 -701.827 -11.4445 3.22064
lowerback 21.9945 -0.783565 9.50884
upperback -1.26673 3.11126 12.0246
thorax -14.3024 1.31725 7.56467
lowerneck 2.23179 -9.70621 -3.72447
upperneck -41.6531 -11.692 11.8253
head -13.4057 -6.65202 6.80915
rclavicle -9.38264e-014 3.18055e-015
rhumerus -0.591932 -39.6985 -16.8643
rradius 32.5388
rwrist -41.9573
rhand -31.6188 28.5269
rfingers 7.12502
rthumb -4.88069 -1.39687
lclavicle -9.38264e-014 3.18055e-015
lhumerus -21.4633 12.7586 26.3301
lradius 50.2214
lwrist -30.6954
lhand 8.0409 31.7299
lfingers 7.12502
lthumb 33.2659 58.6736
rfemur -49.1371 11.2709 18.7322
rtibia 49.0786
rfoot -13.7627 -13.1799
rtoes -4.73515
lfemur -59.0173 -11.6701 -18.1825
ltibia 62.7762
lfoot -7.33046 7.8044
ltoes 8.34915
2659
root 10.7625 16.057 7.07517 -701.926 -12.5312 3.27271
lowerback 22.1214 -0.87297 9.63221
upperback -1.09683 2.97853 11.8075
thorax -14.135 1.22969 7.26052
lowerneck 2.09287 -9.73134 -3.52544
upperneck -41.5339 -11.7193 11.8388
head -13.3349 -6.70829 6.76002
rclavicle -2.8625e-014 -8.90555e-014
rhumerus -0.417132 -40.1153 -17.2061
rradius 32.1956
rwrist -41.7008
rhand -31.312 28.9293
rfingers 7.12502
rthumb -4.58437 -1.00109
lclavicle -2.8625e-014 -8.90555e-014
lhumerus -21.375 13.0162 26.0851
lradius 50.3598
lwrist -30.5196
lhand 7.72335 32.0983
lfingers 7.12502
lthumb 32.964 59.1061
rfemur -49.0951 11.8683 18.1867
rtibia 49.0304
rfoot -13.6599 -13.0609
rtoes -5.83034
lfemur -58.99 -12.5803 -17.102
ltibia 61.134
lfoot -7.62612 7.44572
ltoes 7.96366
2660
root 10.8236 16.068 7.10003 -701.766 -13.4481 3.5812
lowerback 22.1833 -0.87161 9.14124
upperback -1.15049 2.86814 11.8175
thorax -14.2505 1.21795 7.60262
lowerneck 2.11555 -9.70671 -3.66418
upperneck -41.4794 -11.7416 11.8265
head -13.3009 -6.70899 6.77546
rclavicle 1.59028e-015 3.18055e-014
rhumerus -0.344731 -39.9144 -17.1062
rradius 32.19
rwrist -41.7799
rhand -31.327 28.8847
rfingers 7.12502
rthumb -4.59892 -1.04533
lclavicle 1.59028e-015 3.18055e-014
lhumerus -21.6399 13.2861 26.1654
lradius 50.4802
lwrist -30.4513
lhand 7.22144 32.1982
lfingers 7.12502
lthumb 32.4865 59.3054
rfemur -49.438 12.2456 17.3951
rtibia 48.9734
rfoot -13.2984 -13.0993
rtoes -7.48568
lfemur -59.2952 -13.6347 -16.1019
ltibia 59.4181
lfoot -7.82287 6.85679
ltoes 3.23333
2661
root 10.8851 16.084 7.12688 -701.587 -14.4712 3.92634
lowerback 22.2269 -0.878924 8.79875
upperback -1.22572 2.75682 11.63
thorax -14.3569 1.18208 7.61781
lowerneck 2.26049 -9.79411 -3.71399
upperneck -41.5698 -11.8357 12.0649
head -13.3339 -6.78545 6.90737
rclavicle -3.33958e-014 -4.77083e-014
rhumerus -0.537625 -40.126 -17.2017
rradius 32.3547
rwrist -41.5037
rhand -31.3022 28.3642
rfingers 7.12502
rthumb -4.57497 -1.56636
lclavicle -3.33958e-014 -4.77083e-014
lhumerus -21.5188 13.6161 26.045
lradius 50.4549
lwrist -30.3425
lhand 6.76129 32.1651
lfingers 7.12502
lthumb 32.0484 59.3613
rfemur -49.8101 12.6955 16.5201
rtibia 48.865
rfoot -13.0749 -12.9297
rtoes -8.8011
lfemur -59.6593 -14.651 -15.0434
ltibia 57.6866
lfoot -8.20982 5.83107
ltoes -0.1712
2662
root 10.9497 16.1024 7.16432 -701.525 -15.664 3.971
lowerback 22.4459 -0.878608 8.72959
upperback -1.18775 2.74053 11.4753
thorax -14.4271 1.16732 7.48089
lowerneck 1.96945 -9.87267 -3.52625
upperneck -41.4158 -11.9676 12.0124
head -13.2107 -6.88181 6.82234
rclavicle -1.90833e-014 6.99722e-014
rhumerus -0.745312 -40.0562 -17.2216
rradius 32.4787
rwrist -41.6665
rhand -31.1607 27.9754
rfingers 7.12502
rthumb -4.4383 -1.95806
lclavicle -1.90833e-014 6.99722e-014
lhumerus -21.4229 13.9076 25.9123
lradius 50.4139
lwrist -30.2286
lhand 6.40533 32.2489
lfingers 7.12502
lthumb 31.7095 59.5127
rfemur -49.9475 13.4539 15.8972
rtibia 48.697
rfoot -12.8397 -12.7436
rtoes -10.6806
lfemur -59.8764 -15.5192 -13.6487
ltibia 56.0382
lfoot -8.64111 4.33741
ltoes -0.492786
2663
root 11.0131 16.1146 7.20181 -701.571 -16.7365 3.81479
lowerback 22.7305 -0.895976 8.64084
upperback -1.27582 2.76963 11.8432
thorax -14.2344 1.09234 7.27843
lowerneck 1.72268 -9.80205 -3.52073
upperneck -41.2985 -11.9505 11.838
head -13.1269 -6.86731 6.71978
rclavicle 1.74931e-014 -1.04958e-013
rhumerus -0.532461 -39.942 -17.3211
rradius 32.4437
rwrist -41.7863
rhand -31.3748 27.7338
rfingers 7.12502
rthumb -4.64503 -2.1953
lclavicle 1.74931e-014 -1.04958e-013
lhumerus -21.8098 13.9132 25.833
lradius 50.9703
lwrist -29.9846
lhand 6.18539 32.5718
lfingers 7.12502
lthumb 31.5 59.8768
rfemur -49.8482 14.2532 15.5306
rtibia 48.4801
rfoot -12.5526 -12.7641
rtoes -12.506
lfemur -59.9601 -16.4102 -12.0328
ltibia 54.4932
lfoot -8.7805 2.60123
ltoes -2.57974
